<svg width="346" height="161" viewBox="0 0 346 161" fill="none" xmlns="http://www.w3.org/2000/svg">
<path fill-rule="evenodd" clip-rule="evenodd" d="M10 0C4.47715 0 0 4.47715 0 10V74.6534C0.0701517 74.6947 0.137471 74.7459 0.200474 74.8077L5.27286 79.7863C5.67223 80.1782 5.67223 80.8216 5.27286 81.2136L0.200471 86.1921C0.137469 86.254 0.0701508 86.3052 0 86.3465V151C0 156.523 4.47716 161 10 161H336C341.523 161 346 156.509 346 150.986V86.3465C345.93 86.3052 345.863 86.254 345.8 86.1921L340.727 81.2136C340.328 80.8216 340.328 80.1782 340.727 79.7863L345.8 74.8077C345.863 74.7459 345.93 74.6947 346 74.6534V10.0141C346 4.49122 341.523 0 336 0H10Z" fill="white"/>
</svg>
